HIERARCHY
ROOT Hips
{
	OFFSET 0.00000 0.00000 0.00000
	CHANNELS 6 Xposition Yposition Zposition Zrotation Yrotation Xrotation 
	JOINT LHipJoint
	{
		OFFSET 0 0 0
		CHANNELS 3 Zrotation Yrotation Xrotation
		JOINT LeftUpLeg
		{
			OFFSET 1.34019 -1.87553 0.90315
			CHANNELS 3 Zrotation Yrotation Xrotation
			JOINT LeftLeg
			{
				OFFSET 2.55316 -7.01474 0.00000
				CHANNELS 3 Zrotation Yrotation Xrotation
				JOINT LeftFoot
				{
					OFFSET 2.64657 -7.27139 0.00000
					CHANNELS 3 Zrotation Yrotation Xrotation
					JOINT LeftToeBase
					{
						OFFSET 0.24207 -0.66507 2.14489
						CHANNELS 3 Zrotation Yrotation Xrotation
						End Site
						{
							OFFSET 0.00000 -0.00000 1.12451
						}
					}
				}
			}
		}
	}
	JOINT RHipJoint
	{
		OFFSET 0 0 0
		CHANNELS 3 Zrotation Yrotation Xrotation
		JOINT RightUpLeg
		{
			OFFSET -1.28320 -1.87553 0.90315
			CHANNELS 3 Zrotation Yrotation Xrotation
			JOINT RightLeg
			{
				OFFSET -2.60484 -7.15674 0.00000
				CHANNELS 3 Zrotation Yrotation Xrotation
				JOINT RightFoot
				{
					OFFSET -2.60296 -7.15159 0.00000
					CHANNELS 3 Zrotation Yrotation Xrotation
					JOINT RightToeBase
					{
						OFFSET -0.31082 -0.85398 2.28998
						CHANNELS 3 Zrotation Yrotation Xrotation
						End Site
						{
							OFFSET -0.00000 -0.00000 1.21611
						}
					}
				}
			}
		}
	}
	JOINT LowerBack
	{
		OFFSET 0 0 0
		CHANNELS 3 Zrotation Yrotation Xrotation
		JOINT Spine
		{
			OFFSET -0.00160 2.05581 -0.15156
			CHANNELS 3 Zrotation Yrotation Xrotation
			JOINT Spine1
			{
				OFFSET 0.04594 2.06326 -0.01617
				CHANNELS 3 Zrotation Yrotation Xrotation
				JOINT Neck
				{
					OFFSET 0 0 0
					CHANNELS 3 Zrotation Yrotation Xrotation
					JOINT Neck1
					{
						OFFSET 0.03753 1.73883 0.26751
						CHANNELS 3 Zrotation Yrotation Xrotation
						JOINT Head
						{
							OFFSET -0.09795 1.76129 -0.31794
							CHANNELS 3 Zrotation Yrotation Xrotation
							End Site
							{
								OFFSET -0.03611 1.79987 -0.13846
							}
						}
					}
				}
				JOINT LeftShoulder
				{
					OFFSET 0 0 0
					CHANNELS 3 Zrotation Yrotation Xrotation
					JOINT LeftArm
					{
						OFFSET 3.30667 1.29205 -0.22445
						CHANNELS 3 Zrotation Yrotation Xrotation
						JOINT LeftForeArm
						{
							OFFSET 4.92785 -0.00000 -0.00000
							CHANNELS 3 Zrotation Yrotation Xrotation
							JOINT LeftHand
							{
								OFFSET 3.44052 -0.00000 0.00000
								CHANNELS 3 Zrotation Yrotation Xrotation
								JOINT LeftFingerBase
								{
									OFFSET 0 0 0
									CHANNELS 3 Zrotation Yrotation Xrotation
									JOINT LeftHandIndex1
									{
										OFFSET 0.65433 -0.00000 0.00000
										CHANNELS 3 Zrotation Yrotation Xrotation
										End Site
										{
											OFFSET 0.52753 -0.00000 0.00000
										}
									}
								}
								JOINT LThumb
								{
									OFFSET 0 0 0
									CHANNELS 3 Zrotation Yrotation Xrotation
									End Site
									{
										OFFSET 0.53559 -0.00000 0.53559
									}
								}
							}
						}
					}
				}
				JOINT RightShoulder
				{
					OFFSET 0 0 0
					CHANNELS 3 Zrotation Yrotation Xrotation
					JOINT RightArm
					{
						OFFSET -3.20032 1.49783 -0.27688
						CHANNELS 3 Zrotation Yrotation Xrotation
						JOINT RightForeArm
						{
							OFFSET -5.09181 -0.00000 -0.00000
							CHANNELS 3 Zrotation Yrotation Xrotation
							JOINT RightHand
							{
								OFFSET -3.49865 -0.00000 -0.00000
								CHANNELS 3 Zrotation Yrotation Xrotation
								JOINT RightFingerBase
								{
									OFFSET 0 0 0
									CHANNELS 3 Zrotation Yrotation Xrotation
									JOINT RightHandIndex1
									{
										OFFSET -0.66641 -0.00000 0.00000
										CHANNELS 3 Zrotation Yrotation Xrotation
										End Site
										{
											OFFSET -0.53728 -0.00000 0.00000
										}
									}
								}
								JOINT RThumb
								{
									OFFSET 0 0 0
									CHANNELS 3 Zrotation Yrotation Xrotation
									End Site
									{
										OFFSET -0.54548 -0.00000 0.54548
									}
								}
							}
						}
					}
				}
			}
		}
	}
}
MOTION
Frames: 10
Frame Time: .0083333
2.1978 19.2980 15.4536 -3.2902 1.0419 0.8764 0.0000 0.0000 0.0000 -15.6199 -1.9753 -6.3512 2.8960 10.5247 30.6932 -0.1045 10.1544 5.2409 1.2691 -7.1403 -20.1317 0.0000 0.0000 0.0000 20.1301 -8.7275 -23.7712 -10.8181 -17.8449 62.1893 1.5572 -21.4400 -8.8230 -0.0103 0.6555 -1.8013 -5.4189 -1.7823 4.7702 2.4027 -2.6204 -0.3587 5.7233 -1.2133 -2.6932 6.3670 0.6530 -22.3271 1.3894 -1.1744 8.4267 -0.6901 -0.2199 6.1134 0.0000 -0.0000 0.0000 -72.6591 7.4337 42.7889 36.3437 -45.7481 -15.7682 -0.0000 0.0000 -19.4223 13.6150 -5.3775 -1.3003 -7.1250 0.0000 -0.0000 -9.7243 24.4503 4.8950 0.0000 -0.0000 0.0000 73.5230 -10.6245 45.3188 -66.1375 57.7351 -39.4916 0.0000 -0.0000 -21.1453 -10.5026 2.7535 -0.5102 7.1250 -0.0000 -0.0000 12.2667 -27.1197 5.4429
2.2210 19.3488 15.6498 -3.0530 1.3487 0.7142 0.0000 0.0000 0.0000 -15.8466 -1.9154 -5.9301 2.9261 10.5745 30.8579 -0.1082 10.0234 5.0439 1.2760 -7.1590 -20.1873 0.0000 0.0000 0.0000 20.1395 -8.8435 -25.1941 -10.5790 -17.7229 61.4068 1.3850 -20.3232 -9.1088 -0.0274 1.0694 -2.9398 -5.6225 -2.1210 4.9511 2.6369 -3.0873 -0.3214 6.1201 -1.4447 -2.6685 6.6886 0.8369 -22.1749 0.9820 -0.9507 8.3585 -0.8476 -0.1396 6.0682 -0.0000 0.0000 0.0000 -71.2510 7.0228 44.0160 37.5292 -46.5360 -16.6231 -0.0000 0.0000 -19.0683 12.9969 -5.9039 -1.3600 -7.1250 0.0000 -0.0000 -10.1474 23.9326 5.2378 -0.0000 0.0000 0.0000 73.0209 -11.2016 44.2741 -69.2377 58.3068 -42.1215 0.0000 -0.0000 -21.7878 -10.5491 2.8862 -0.5372 7.1250 -0.0000 -0.0000 12.2178 -26.9877 5.4592
2.2455 19.3918 15.8473 -2.8180 1.6757 0.5554 0.0000 0.0000 0.0000 -16.0786 -1.8628 -5.5087 2.9550 10.6218 31.0147 -0.1319 9.9651 4.4856 1.2974 -7.2166 -20.3586 0.0000 0.0000 0.0000 20.1382 -8.9525 -26.5216 -10.2839 -17.5664 60.4330 1.2355 -19.3159 -9.4460 -0.0518 1.4694 -4.0415 -5.7959 -2.4372 5.1460 2.8697 -3.5232 -0.2454 6.4970 -1.6639 -2.6105 6.9449 1.0064 -22.1696 0.5926 -0.7433 8.3308 -0.9911 -0.0658 6.0604 0.0000 -0.0000 0.0000 -69.8231 6.4520 45.1173 38.7548 -47.3146 -17.5183 -0.0000 0.0000 -18.9063 12.3905 -6.1972 -1.3586 -7.1250 0.0000 -0.0000 -10.5738 23.6522 5.5348 0.0000 -0.0000 0.0000 72.5203 -11.6886 43.1193 -72.3294 58.7866 -44.7591 0.0000 -0.0000 -22.2837 -10.5952 3.0801 -0.5759 7.1250 -0.0000 -0.0000 12.1635 -26.7949 5.4904
2.2706 19.4284 16.0459 -2.6012 1.9841 0.4009 0.0000 0.0000 0.0000 -16.3007 -1.8319 -5.0575 2.9703 10.6468 31.0978 -0.1687 10.0306 3.7183 1.3190 -7.2741 -20.5299 0.0000 0.0000 0.0000 20.1496 -9.0029 -27.7363 -9.9327 -17.3719 59.2633 1.1094 -18.4469 -9.8226 -0.0812 1.8386 -5.0598 -5.9721 -2.7528 5.3567 3.1072 -3.9598 -0.1571 6.8821 -1.8850 -2.5413 7.2436 1.2084 -22.1777 0.1788 -0.5033 8.3181 -1.1456 0.0237 6.0620 -0.0000 0.0000 0.0000 -68.3618 5.8111 46.0225 39.9815 -48.0589 -18.4254 -0.0000 0.0000 -18.8791 11.7619 -6.3124 -1.3115 -7.1250 0.0000 -0.0000 -11.0262 23.5521 5.8061 -0.0000 0.0000 0.0000 72.0170 -12.1108 41.9711 -75.3852 59.1774 -47.3782 0.0000 -0.0000 -22.6078 -10.6477 3.3373 -0.6271 7.1250 -0.0000 -0.0000 12.0985 -26.5388 5.5342
2.2958 19.4584 16.2460 -2.3976 2.2590 0.2401 0.0000 0.0000 0.0000 -16.5188 -1.8256 -4.5460 2.9629 10.6348 31.0578 -0.2134 10.2508 2.8746 1.3151 -7.2636 -20.4988 0.0000 0.0000 0.0000 20.1646 -8.9902 -28.8247 -9.5307 -17.1374 57.9080 1.0053 -17.7227 -10.2119 -0.1125 2.1625 -5.9549 -6.1840 -3.1027 5.5718 3.3245 -4.4468 -0.1073 7.2719 -2.1294 -2.4982 7.7490 1.4945 -21.8844 -0.3155 -0.1694 8.1983 -1.3483 0.1553 5.9876 -0.0000 -0.0000 0.0000 -66.8079 5.2771 46.7133 41.1927 -48.7609 -19.3314 -0.0000 0.0000 -18.9821 11.1460 -6.2803 -1.2347 -7.1250 0.0000 -0.0000 -11.4784 23.5988 6.0409 -0.0000 -0.0000 0.0000 71.5448 -12.5529 40.9668 -78.3687 59.4826 -49.9445 0.0000 -0.0000 -22.7687 -10.7338 3.6558 -0.6925 7.1250 -0.0000 -0.0000 12.0032 -26.2214 5.5802
2.3217 19.4811 16.4469 -2.1620 2.4910 0.0684 0.0000 0.0000 0.0000 -16.7930 -1.8599 -3.9468 2.9276 10.5769 30.8657 -0.2668 10.6562 1.9934 1.2803 -7.1706 -20.2219 0.0000 0.0000 0.0000 20.1214 -8.9214 -29.7889 -9.0868 -16.8633 56.3899 0.9162 -17.1091 -10.6288 -0.1433 2.4398 -6.7228 -6.4053 -3.4033 5.8028 3.5164 -4.8707 -0.0571 7.6391 -2.3421 -2.4684 8.2091 1.7491 -21.5723 -0.7892 0.1366 8.0502 -1.5405 0.2738 5.9034 -0.0000 0.0000 0.0000 -65.1948 4.6505 47.3780 42.3608 -49.4080 -20.2141 -0.0000 0.0000 -19.2500 10.5210 -6.1104 -1.1325 -7.1250 0.0000 -0.0000 -11.9479 23.7817 6.2470 -0.0000 0.0000 0.0000 71.1081 -13.0159 39.8589 -81.2993 59.7120 -52.4722 0.0000 -0.0000 -22.7999 -10.8745 4.0549 -0.7783 7.1250 -0.0000 -0.0000 11.8610 -25.8228 5.6245
2.3475 19.4953 16.6485 -1.8940 2.6655 -0.1085 0.0000 0.0000 0.0000 -17.1203 -1.9252 -3.2682 2.8620 10.4683 30.5068 -0.3302 11.2328 1.0749 1.2282 -7.0285 -19.7999 0.0000 0.0000 0.0000 20.0218 -8.7718 -30.6399 -8.6109 -16.5507 54.7345 0.8414 -16.6114 -11.0712 -0.1741 2.6876 -7.4101 -6.7279 -3.7104 6.0832 3.7130 -5.3138 0.0546 8.0724 -2.5688 -2.3822 8.7809 2.1027 -21.5243 -1.3377 0.5269 7.9766 -1.7654 0.4330 5.8919 0.0000 -0.0000 0.0000 -63.5727 3.8995 47.7531 43.4547 -49.9886 -21.0484 -0.0000 0.0000 -19.6600 9.9192 -5.8643 -1.0236 -7.1250 0.0000 -0.0000 -12.4076 24.0375 6.4233 0.0000 -0.0000 0.0000 70.6447 -13.2612 38.8158 -84.1088 59.8685 -54.9003 0.0000 -0.0000 -22.7424 -11.0479 4.4809 -0.8739 7.1250 -0.0000 -0.0000 11.6941 -25.3963 5.6611
2.3730 19.5002 16.8498 -1.5892 2.7872 -0.2899 0.0000 0.0000 0.0000 -17.5031 -2.0157 -2.5216 2.7671 10.3081 29.9803 -0.4035 11.9444 0.1172 1.1744 -6.8786 -19.3561 0.0000 0.0000 0.0000 19.8575 -8.5376 -31.3916 -8.1133 -16.2020 52.9699 0.7772 -16.2154 -11.5588 -0.2039 2.9076 -8.0217 -7.0334 -3.9425 6.3566 3.8596 -5.6584 0.1114 8.4417 -2.7416 -2.3671 9.2905 2.3661 -21.2144 -1.8421 0.8383 7.7963 -1.9755 0.5539 5.8052 -0.0000 -0.0000 0.0000 -61.8544 3.1364 48.2330 44.4824 -50.5124 -21.8385 -0.0000 0.0000 -20.1929 9.3594 -5.5651 -0.9157 -7.1250 0.0000 -0.0000 -12.8433 24.3426 6.5668 -0.0000 -0.0000 0.0000 70.2608 -13.7020 37.6270 -86.9242 59.9642 -57.3366 0.0000 -0.0000 -22.6027 -11.3167 4.9218 -0.9837 7.1250 -0.0000 -0.0000 11.4578 -24.9524 5.6630
2.3981 19.4947 17.0507 -1.2179 2.8612 -0.4689 0.0000 0.0000 0.0000 -17.9675 -2.1070 -1.7299 2.6458 10.0984 29.2959 -0.4869 12.7730 -0.8558 1.1125 -6.7010 -18.8327 0.0000 0.0000 0.0000 19.5889 -8.2121 -32.0566 -7.6039 -15.8201 51.1232 0.7208 -15.9079 -12.0967 -0.2321 3.1011 -8.5603 -7.3958 -4.1255 6.6458 3.9747 -5.9449 0.1712 8.8099 -2.8847 -2.3610 9.7568 2.6026 -20.9467 -2.3236 1.1196 7.6292 -2.1748 0.6618 5.7307 -0.0000 -0.0000 0.0000 -60.1049 2.2773 48.6361 45.4155 -50.9704 -22.5611 -0.0000 0.0000 -20.7820 8.8417 -5.2475 -0.8151 -7.1250 0.0000 -0.0000 -13.2522 24.6628 6.6856 -0.0000 -0.0000 0.0000 69.9124 -14.1471 36.3491 -89.6916 59.9996 -59.7329 0.0000 -0.0000 -22.4271 -11.6261 5.3485 -1.0987 7.1250 -0.0000 -0.0000 11.1955 -24.5205 5.6430
2.4217 19.4782 17.2510 -0.8129 2.8859 -0.6399 0.0000 0.0000 0.0000 -18.4667 -2.1757 -0.9214 2.5031 9.8435 28.4714 -0.5793 13.6789 -1.8212 1.0494 -6.5143 -18.2842 0.0000 0.0000 0.0000 19.2531 -7.7670 -32.6401 -7.0894 -15.4067 49.2116 0.6724 -15.6984 -12.6888 -0.2576 3.2656 -9.0192 -7.7618 -4.2461 6.9271 4.0513 -6.1511 0.2017 9.1379 -2.9840 -2.3972 10.1723 2.7767 -20.5744 -2.7665 1.3403 7.4243 -2.3609 0.7424 5.6262 0.0000 -0.0000 0.0000 -58.2981 1.3677 49.0517 46.2541 -51.3683 -23.2144 -0.0000 0.0000 -21.4037 8.3591 -4.9296 -0.7234 -7.1250 0.0000 -0.0000 -13.6380 24.9806 6.7873 0.0000 -0.0000 0.0000 69.6326 -14.7003 34.9590 -92.4373 59.9775 -62.1106 0.0000 -0.0000 -22.2360 -12.0099 5.7036 -1.2112 7.1250 -0.0000 -0.0000 10.8868 -24.1569 5.5751
